<svg width="700" height="540" xmlns="http://www.w3.org/2000/svg" viewBox="0 0 700 540"><style>line{fill:none;stroke:#000;stroke-linecap:round;stroke-width:0.005;}.hidden-lines line{stroke:#888;stroke-width:0.0025;stroke-dasharray:0.0125;}.damage-marker{fill:#D00;stroke:none;}.label{font-size:16px;font-family:sans-serif;}</style><rect x="0" y="0" width="700" height="540" fill="#fff"/><text x="60" y="35" class="label" font-weight="bold">Assembly: Untitled</text><g transform="translate(220,60)"><text x="50" y="120" text-anchor="middle" font-size="14" font-family="sans-serif">TOP</text><g transform="translate(50,50) scale(200) translate(0,0)"><g class="hidden-lines"><line x1="-0.25" y1="0.25" x2="0.25" y2="0.25" /><line x1="0.25" y1="0.25" x2="0.25" y2="0.25" /><line x1="-0.25" y1="0.25" x2="-0.25" y2="0.25" /><line x1="-0.25" y1="-0.25" x2="0.25" y2="-0.25" /><line x1="0.25" y1="-0.25" x2="0.25" y2="-0.25" /><line x1="-0.25" y1="-0.25" x2="-0.25" y2="-0.25" /><line x1="-0.25" y1="0.25" x2="-0.25" y2="-0.25" /><line x1="0.25" y1="0.25" x2="0.25" y2="-0.25" /></g><g class="visible-lines"><line x1="0.25" y1="0.25" x2="-0.25" y2="0.25" /><line x1="0.25" y1="-0.25" x2="-0.25" y2="-0.25" /><line x1="0.25" y1="0.25" x2="0.25" y2="-0.25" /><line x1="-0.25" y1="0.25" x2="-0.25" y2="-0.25" /></g><circle cx="0" cy="0" r="0.01" class="damage-marker" /></g></g><g transform="translate(60,220)"><text x="50" y="120" text-anchor="middle" font-size="14" font-family="sans-serif">LEFT</text><g transform="translate(50,50) scale(200) translate(0,0.25)"><g class="hidden-lines"><line x1="-0.25" y1="0" x2="-0.25" y2="0" /><line x1="-0.25" y1="0" x2="-0.25" y2="-0.5" /><line x1="-0.25" y1="-0.5" x2="-0.25" y2="-0.5" /><line x1="0.25" y1="0" x2="0.25" y2="0" /><line x1="0.25" y1="0" x2="0.25" y2="-0.5" /><line x1="0.25" y1="-0.5" x2="0.25" y2="-0.5" /><line x1="-0.25" y1="0" x2="0.25" y2="0" /><line x1="-0.25" y1="-0.5" x2="0.25" y2="-0.5" /></g><g class="visible-lines"><line x1="-0.25" y1="0" x2="-0.25" y2="-0.5" /><line x1="0.25" y1="0" x2="0.25" y2="-0.5" /><line x1="-0.25" y1="0" x2="0.25" y2="0" /><line x1="-0.25" y1="-0.5" x2="0.25" y2="-0.5" /></g><circle cx="0" cy="-0.5" r="0.01" class="damage-marker" /></g></g><g transform="translate(220,220)"><text x="50" y="120" text-anchor="middle" font-size="14" font-family="sans-serif">FRONT</text><g transform="translate(50,50) scale(200) translate(0,0.25)"><g class="hidden-lines"><line x1="-0.25" y1="0" x2="0.25" y2="0" /><line x1="0.25" y1="0" x2="0.25" y2="-0.5" /><line x1="0.25" y1="-0.5" x2="-0.25" y2="-0.5" /><line x1="-0.25" y1="0" x2="-0.25" y2="-0.5" /><line x1="-0.25" y1="0" x2="-0.25" y2="0" /><line x1="0.25" y1="0" x2="0.25" y2="0" /><line x1="0.25" y1="-0.5" x2="0.25" y2="-0.5" /><line x1="-0.25" y1="-0.5" x2="-0.25" y2="-0.5" /></g><g class="visible-lines"><line x1="-0.25" y1="0" x2="0.25" y2="0" /><line x1="0.25" y1="0" x2="0.25" y2="-0.5" /><line x1="0.25" y1="-0.5" x2="-0.25" y2="-0.5" /><line x1="-0.25" y1="0" x2="-0.25" y2="-0.5" /></g><circle cx="0" cy="-0.5" r="0.01" class="damage-marker" /></g></g><g transform="translate(380,220)"><text x="50" y="120" text-anchor="middle" font-size="14" font-family="sans-serif">RIGHT</text><g transform="translate(50,50) scale(200) translate(0,0.25)"><g class="hidden-lines"><line x1="0.25" y1="0" x2="0.25" y2="0" /><line x1="0.25" y1="-0.5" x2="0.25" y2="-0.5" /><line x1="0.25" y1="0" x2="0.25" y2="-0.5" /><line x1="-0.25" y1="0" x2="-0.25" y2="0" /><line x1="-0.25" y1="-0.5" x2="-0.25" y2="-0.5" /><line x1="-0.25" y1="0" x2="-0.25" y2="-0.5" /><line x1="0.25" y1="0" x2="-0.25" y2="0" /><line x1="0.25" y1="-0.5" x2="-0.25" y2="-0.5" /></g><g class="visible-lines"><line x1="0.25" y1="0" x2="0.25" y2="-0.5" /><line x1="-0.25" y1="0" x2="-0.25" y2="-0.5" /><line x1="0.25" y1="0" x2="-0.25" y2="0" /><line x1="0.25" y1="-0.5" x2="-0.25" y2="-0.5" /></g><circle cx="0" cy="-0.5" r="0.01" class="damage-marker" /></g></g><g transform="translate(540,220)"><text x="50" y="120" text-anchor="middle" font-size="14" font-family="sans-serif">BACK</text><g transform="translate(50,50) scale(200) translate(0,0.25)"><g class="hidden-lines"><line x1="0.25" y1="0" x2="-0.25" y2="0" /><line x1="-0.25" y1="0" x2="-0.25" y2="-0.5" /><line x1="-0.25" y1="-0.5" x2="0.25" y2="-0.5" /><line x1="0.25" y1="0" x2="0.25" y2="-0.5" /><line x1="0.25" y1="0" x2="0.25" y2="0" /><line x1="-0.25" y1="0" x2="-0.25" y2="0" /><line x1="-0.25" y1="-0.5" x2="-0.25" y2="-0.5" /><line x1="0.25" y1="-0.5" x2="0.25" y2="-0.5" /></g><g class="visible-lines"><line x1="0.25" y1="0" x2="-0.25" y2="0" /><line x1="-0.25" y1="0" x2="-0.25" y2="-0.5" /><line x1="-0.25" y1="-0.5" x2="0.25" y2="-0.5" /><line x1="0.25" y1="0" x2="0.25" y2="-0.5" /></g><circle cx="0" cy="-0.5" r="0.01" class="damage-marker" /></g></g><g transform="translate(220,380)"><text x="50" y="120" text-anchor="middle" font-size="14" font-family="sans-serif">BOTTOM</text><g transform="translate(50,50) scale(200) translate(0,0)"><g class="hidden-lines"><line x1="0.25" y1="-0.25" x2="0.25" y2="-0.25" /><line x1="0.25" y1="-0.25" x2="-0.25" y2="-0.25" /><line x1="-0.25" y1="-0.25" x2="-0.25" y2="-0.25" /><line x1="0.25" y1="0.25" x2="0.25" y2="0.25" /><line x1="0.25" y1="0.25" x2="-0.25" y2="0.25" /><line x1="-0.25" y1="0.25" x2="-0.25" y2="0.25" /><line x1="0.25" y1="-0.25" x2="0.25" y2="0.25" /><line x1="-0.25" y1="-0.25" x2="-0.25" y2="0.25" /></g><g class="visible-lines"><line x1="-0.25" y1="-0.25" x2="0.25" y2="-0.25" /><line x1="-0.25" y1="0.25" x2="0.25" y2="0.25" /><line x1="-0.25" y1="-0.25" x2="-0.25" y2="0.25" /><line x1="0.25" y1="-0.25" x2="0.25" y2="0.25" /></g><circle cx="0" cy="0" r="0.01" class="damage-marker" /></g></g></svg>